<?xml version="1.0" standalone="no"?>
<!DOCTYPE svg PUBLIC "-//W3C//DTD SVG 20010904//EN"
 "http://www.w3.org/TR/2001/REC-SVG-20010904/DTD/svg10.dtd">
<svg version="1.0" xmlns="http://www.w3.org/2000/svg"
 width="700.000000pt" height="700.000000pt" viewBox="0 0 700.000000 700.000000"
 preserveAspectRatio="xMidYMid meet">
<metadata>
Created by potrace 1.11, written by Peter Selinger 2001-2013
</metadata>
<g transform="translate(0.000000,700.000000) scale(0.100000,-0.100000)"
fill="#000000" stroke="none">
<path d="M3376 6810 c-65 -39 -123 -70 -127 -70 -5 0 -9 -4 -9 -10 0 -5 -4
-10 -9 -10 -7 0 -601 -338 -721 -410 -8 -5 -141 -82 -295 -171 -154 -89 -298
-173 -320 -185 -22 -13 -76 -44 -120 -69 -44 -25 -87 -50 -95 -55 -42 -26
-610 -354 -630 -363 -8 -4 -118 -68 -245 -142 l-230 -134 -1 -1690 -1 -1690
141 -82 c78 -45 188 -109 246 -142 152 -87 153 -88 290 -167 69 -40 150 -86
180 -103 30 -16 62 -36 71 -43 8 -8 19 -14 22 -14 4 0 37 -18 73 -40 36 -22
67 -40 69 -40 2 0 36 -20 77 -43 40 -24 147 -86 238 -139 91 -52 401 -231 690
-398 289 -167 594 -343 679 -392 l155 -89 27 20 c16 12 30 21 33 21 2 0 215
122 473 271 257 150 488 283 513 297 25 14 155 89 290 167 135 78 392 227 573
331 180 104 327 192 327 195 0 5 -190 127 -316 204 -18 11 -78 48 -132 82 -55
35 -107 65 -115 69 -9 3 -41 -8 -74 -27 -45 -25 -481 -276 -798 -459 -163 -94
-358 -206 -390 -225 -22 -12 -123 -70 -224 -129 -101 -58 -187 -106 -192 -106
-5 0 -39 18 -75 40 -36 22 -67 40 -69 40 -1 0 -54 30 -116 66 -63 37 -127 74
-144 84 -16 9 -104 60 -195 112 -91 52 -316 182 -500 288 -184 106 -352 204
-372 217 -21 12 -39 23 -42 23 -2 0 -45 25 -95 55 -51 30 -94 55 -96 55 -3 0
-34 18 -70 40 -36 22 -67 40 -69 40 -6 0 -451 262 -461 271 -7 7 -10 469 -11
1344 l0 1334 179 103 c98 57 191 110 205 118 62 36 183 106 267 155 50 29 110
64 135 77 25 14 155 89 289 167 134 77 248 141 253 141 4 0 8 5 8 10 0 6 4 10
9 10 6 0 76 39 158 86 81 48 164 95 183 106 19 11 166 96 327 189 161 93 298
169 304 169 6 0 54 -26 107 -57 54 -32 113 -66 132 -76 19 -11 62 -35 95 -55
33 -19 74 -43 90 -52 85 -49 371 -214 615 -354 151 -87 327 -189 390 -226 63
-37 133 -78 155 -90 158 -88 703 -405 716 -416 14 -13 15 -110 15 -960 -1
-829 1 -947 14 -958 13 -11 328 -187 495 -276 33 -18 70 -38 81 -46 l21 -13 1
1299 0 1300 -137 79 c-199 115 -519 300 -568 328 -23 12 -108 62 -190 109 -81
48 -168 98 -193 112 -25 14 -58 33 -75 43 -16 10 -57 33 -90 52 -91 52 -122
70 -220 127 -49 29 -110 64 -135 78 -25 14 -124 71 -220 127 -96 56 -330 191
-520 300 -190 109 -357 206 -372 216 -15 11 -29 19 -32 19 -3 0 -43 23 -90 50
-47 28 -86 50 -88 50 -2 -1 -56 -32 -122 -70z"/>
<path d="M1461 4676 c4 -5 490 -382 602 -469 38 -28 80 -62 95 -74 22 -18 237
-184 506 -391 50 -39 104 -81 221 -173 l70 -56 12 -86 c20 -147 91 -268 211
-358 31 -24 58 -44 59 -44 2 -1 8 -37 13 -81 6 -43 13 -90 15 -104 16 -108 31
-216 41 -300 3 -25 7 -57 10 -71 2 -15 6 -47 9 -70 3 -24 7 -55 10 -69 4 -25
10 -68 20 -144 7 -59 14 -112 30 -226 11 -80 25 -180 30 -215 2 -22 14 -104
25 -182 11 -78 22 -161 25 -185 5 -44 8 -65 20 -156 8 -57 25 -80 26 -35 1 35
5 65 24 193 4 24 22 162 31 223 4 31 13 100 19 137 2 14 7 49 10 79 4 30 8 61
10 70 1 9 6 43 10 76 4 32 8 66 10 75 1 8 6 38 9 65 4 28 9 61 11 75 2 14 6
48 10 75 3 28 15 111 25 185 10 74 22 155 25 180 10 77 13 104 19 140 10 65
16 110 22 162 3 29 9 58 13 64 3 6 126 -59 306 -164 165 -95 318 -184 340
-196 22 -13 139 -81 260 -151 121 -70 236 -136 255 -147 97 -56 454 -262 595
-343 88 -51 176 -102 195 -113 19 -11 121 -69 226 -129 173 -100 193 -109 210
-96 10 8 78 48 150 90 l132 75 -1 174 c0 114 -4 177 -11 183 -6 4 -31 20 -56
33 -25 14 -245 141 -490 283 -244 141 -463 267 -487 280 -23 13 -111 64 -195
113 -473 274 -777 450 -972 561 -80 45 -146 86 -146 90 0 4 24 25 52 46 29 22
62 47 73 57 21 17 379 294 428 332 16 11 42 31 57 44 15 12 95 74 176 137 82
63 154 118 159 123 12 10 258 200 294 227 39 29 214 167 226 177 13 12 -27 -1
-97 -32 -27 -11 -1048 -428 -1388 -566 -129 -53 -242 -99 -250 -104 -9 -4 -27
-1 -44 7 -69 36 -145 55 -229 59 -101 4 -168 -8 -252 -46 l-60 -27 -95 39
c-52 22 -156 64 -230 95 -74 30 -148 61 -165 68 -16 7 -102 42 -190 78 -292
118 -772 314 -970 396 -96 40 -113 46 -104 37z"/>
</g>
</svg>
